<?xml version="1.0" encoding="UTF-8" standalone="no"?>
<!DOCTYPE svg PUBLIC "-//W3C//DTD SVG 1.1//EN" "http://www.w3.org/Graphics/SVG/1.1/DTD/svg11.dtd">
<svg version="1.1" xmlns="http://www.w3.org/2000/svg" xmlns:xlink="http://www.w3.org/1999/xlink" preserveAspectRatio="xMidYMid meet" viewBox="-1.0000000000000426 -1 686 686.0000000000001" width="120" height="120"><defs><path d="M341 0C249.91 0 164.28 35.47 99.88 99.88C35.47 164.28 0 249.91 0 341C0 432.08 35.47 517.72 99.88 582.12C164.28 646.53 249.91 682 341 682C432.08 682 517.72 646.53 582.12 582.12C646.53 517.72 682 432.08 682 341C682 249.91 646.53 164.28 582.12 99.88C517.72 35.47 432.08 0 341 0ZM341 446.58C425.63 446.58 496.79 507.16 511.05 589.27C462.63 622.54 404.05 642.04 341 642.04C277.95 642.04 219.37 622.54 170.95 589.27C185.21 507.16 256.37 446.58 341 446.58ZM341 189.77C400.79 189.77 449.43 238.41 449.43 298.2C449.43 357.98 400.79 406.62 341 406.62C281.21 406.62 232.57 357.98 232.57 298.2C232.57 238.41 281.21 189.77 341 189.77ZM483.61 461.55C465.24 444.92 444.33 431.81 421.85 422.56C462.48 396.06 489.39 350.21 489.39 298.2C489.39 216.38 422.82 149.81 341 149.81C259.18 149.81 192.61 216.38 192.61 298.2C192.61 350.21 219.52 396.06 260.15 422.56C237.67 431.81 216.76 444.92 198.39 461.54C168.46 488.64 147.1 523.32 136.34 561.55C77.1 506.54 39.96 428.03 39.96 341C39.96 175.01 175.01 39.96 341 39.96C506.99 39.96 642.04 175.01 642.04 341C642.04 428.03 604.9 506.54 545.66 561.56C534.9 523.33 513.54 488.64 483.61 461.55Z" id="frE1WIi2D"></path></defs><g><g><use xlink:href="#frE1WIi2D" opacity="1" fill="#000000" fill-opacity="1"></use><g><use xlink:href="#frE1WIi2D" opacity="1" fill-opacity="0" stroke="#000000" stroke-width="1" stroke-opacity="0"></use></g></g></g></svg>