<?xml version="1.0" encoding="UTF-8"?>
<svg width="121px" height="48px" viewBox="0 0 121 48" version="1.1" xmlns="http://www.w3.org/2000/svg" xmlns:xlink="http://www.w3.org/1999/xlink">
    <title>Untitled</title>
    <g id="Page-1" stroke="none" stroke-width="1" fill="none" fill-rule="evenodd">
        <g id="Group" transform="translate(0.000000, -0.000000)" fill-rule="nonzero">
            <path d="M34.0267092,39.39741 C32.5222047,38.1163917 30.3927772,37.8714482 28.6367092,38.77741 C28.1545756,39.0230418 27.5700688,38.9389689 27.1767092,38.56741 L26.3367092,37.78741 C25.8408102,37.32452 25.7842024,36.5581369 26.2067092,36.02741 C30.9818666,29.6257649 29.6906629,20.569468 23.3167092,15.75741 C22.68837,15.2685843 22.5289033,14.3850522 22.9467092,13.70741 L23.5567092,12.70741 C23.9038678,12.1502319 24.5677815,11.876619 25.2067092,12.02741 C28.0070994,12.6663921 30.8732437,11.2617904 32.0840065,8.657076 C33.2947693,6.05236166 32.5209373,2.95577101 30.2272011,1.2268241 C27.9334649,-0.502122808 24.743504,-0.393315708 22.5729078,1.48790613 C20.4023116,3.36912796 19.8412774,6.51124987 21.2267092,9.02741002 C21.637253,9.82136867 21.5596435,10.7798464 21.0267092,11.49741 L20.3567092,12.38741 C19.8032824,13.1256544 18.863634,13.4637705 17.9667092,13.24741 C11.5049944,11.6747054 4.80031269,14.6897126 1.68890686,20.5673237 C-1.42249898,26.4449347 -0.146352352,33.6847189 4.78716913,38.1442618 C9.72069062,42.6038048 17.0521626,43.1446788 22.5867092,39.45741 C23.2644949,38.9963086 24.1602714,39.0163933 24.8167092,39.50741 L25.4367092,39.97741 C26.056957,40.4382919 26.3341704,41.23033 26.1367092,41.97741 C25.5800104,44.3082372 26.8017219,46.6976719 29.0171966,47.6110943 C31.2326714,48.5245166 33.7834131,47.6904337 35.031202,45.6445374 C36.2789908,43.598641 35.8529517,40.9490244 34.0267092,39.39741 L34.0267092,39.39741 Z" id="Path" fill="#1AD7E5"></path>
            <path d="M37.1867092,22.16741 L45.6067092,22.16741 C46.3921243,22.1537978 47.1483321,22.4649646 47.6967092,23.02741 C48.2570726,23.5689461 48.5683663,24.3182229 48.5567092,25.09741 L48.5567092,33.27741 C48.5570252,34.0667761 48.2386485,34.8228409 47.673933,35.3743797 C47.1092174,35.9259186 46.34585,36.2262686 45.5567092,36.20741 L37.1867092,36.20741 C35.5685149,36.20741 34.2567092,34.8956043 34.2567092,33.27741 L34.2567092,25.08741 C34.2567092,23.4692157 35.5685149,22.15741 37.1867092,22.15741 L37.1867092,22.16741 Z M45.6067092,24.16741 L37.1867092,24.16741 C36.6698202,24.1728229 36.2521221,24.5905211 36.2467092,25.10741 L36.2467092,33.28741 C36.2521221,33.804299 36.6698202,34.2219971 37.1867092,34.22741 L45.6067092,34.22741 C46.1235982,34.2219971 46.5412963,33.804299 46.5467092,33.28741 L46.5467092,25.08741 C46.5412963,24.5705211 46.1235982,24.1528229 45.6067092,24.14741 L45.6067092,24.16741 Z" id="Shape" fill="#1AD7E5"></path>
            <polygon id="Path" fill="#1AD7E5" points="30.8667092 36.19741 30.8667092 22.19741 32.8667092 22.19741 32.8667092 36.19741"></polygon>
            <circle id="Oval" fill="#1AD7E5" cx="31.8567092" cy="19.76741" r="1"></circle>
            <path d="M12.9167092,34.02741 L11.0267092,34.02741 C10.4744244,34.02741 10.0267092,33.5796948 10.0267092,33.02741 L10.0267092,28.56741 C10.0267092,28.0151253 10.4744244,27.56741 11.0267092,27.56741 L11.7467092,27.56741 L13.0267092,25.40741 L11.0267092,25.40741 C10.4744244,25.40741 10.0267092,24.9596948 10.0267092,24.40741 L10.0267092,22.12741 L7.86670919,22.12741 L7.86670919,33.78741 C7.86670919,35.1018477 8.93227149,36.16741 10.2467092,36.16741 L11.6867092,36.16741 L12.9167092,34.02741 Z" id="Path" fill="#FFFFFF"></path>
            <path d="M21.0867092,26.21741 L21.0267092,25.76741 C21.248414,25.3339196 21.3648926,24.8543018 21.3667092,24.36741 L21.3667092,21.72741 C21.3720748,20.8850403 21.0398169,20.0756172 20.4441595,19.4799598 C19.848502,18.8843024 19.0390789,18.5520444 18.1967092,18.557346 L7.86670919,18.557346 L7.86670919,20.69741 L18.1567092,20.69741 C18.4239551,20.6985194 18.6796378,20.8065544 18.8667092,20.99741 C19.0588983,21.1910031 19.1636575,21.4547075 19.1567092,21.72741 L19.1567092,24.37741 C19.1636575,24.6501125 19.0588983,24.9138169 18.8667092,25.10741 C18.6796378,25.2982657 18.4239551,25.4063006 18.1567092,25.40741 L14.6367092,25.40741 L13.4067092,27.54741 L19.0267092,27.54741 C19.5789939,27.54741 20.0267092,27.9951253 20.0267092,28.54741 L20.0267092,33.02741 C20.0267092,33.5796948 19.5789939,34.02741 19.0267092,34.02741 L14.5567092,34.02741 L13.3267092,36.16741 L19.0267092,36.16741 C20.7507889,36.1509979 22.1413138,34.7515594 22.1467761,33.02741 L22.1467761,28.56741 C22.1526262,27.6670544 21.7655434,26.8088991 21.0867092,26.21741 L21.0867092,26.21741 Z" id="Path" fill="#FFFFFF"></path>
            <polygon id="Path" fill="#FFFFFF" points="51.7467092 22.17741 65.8267092 22.17741 65.8267092 23.75741 59.5867092 23.75741 59.5867092 36.25741 58.0267092 36.25741 58.0267092 23.75741 51.7467092 23.75741"></polygon>
            <path d="M74.1967092,24.91741 L75.7967092,24.91741 L75.7967092,33.91741 C75.8065216,34.5453485 75.5568903,35.1495288 75.1067092,35.58741 C74.6626725,36.0406831 74.0511041,36.2903767 73.4167092,36.27741 L66.6067092,36.27741 C65.2977943,36.27741 64.2367092,35.2163249 64.2367092,33.90741 L64.2367092,24.90741 L65.8367092,24.90741 L65.8367092,33.90741 C65.8420968,34.3248945 66.1792247,34.6620225 66.5967092,34.66741 L73.4067092,34.66741 C73.6120441,34.6703521 73.8100474,34.5911508 73.9567092,34.44741 C74.1065938,34.3082478 74.1902202,34.1119074 74.1867092,33.90741 L74.1967092,24.91741 Z" id="Path" fill="#FFFFFF"></path>
            <path d="M79.3067092,24.91741 L85.6767092,24.91741 L85.6767092,26.51741 L79.3067092,26.51741 C78.8892247,26.5227976 78.5520968,26.8599256 78.5467092,27.27741 L78.5467092,36.27741 L76.9467092,36.27741 L76.9467092,27.27741 C76.9467092,26.6488469 77.1964049,26.0460282 77.6408661,25.601567 C78.0853273,25.1571057 78.6881461,24.90741 79.3167092,24.90741 L79.3067092,24.91741 Z" id="Path" fill="#FFFFFF"></path>
            <polygon id="Path" fill="#FFFFFF" points="86.8267092 36.25741 86.8267092 24.91741 88.4267092 24.91741 88.4267092 36.25741"></polygon>
            <path d="M98.7767092,24.91741 C100.085624,24.91741 101.146709,25.9784952 101.146709,27.28741 L101.146709,36.28741 L99.5467092,36.28741 L99.5467092,27.28741 C99.5413216,26.8699256 99.2041936,26.5327976 98.7867092,26.52741 L91.9667092,26.52741 C91.7613742,26.5244679 91.563371,26.6036692 91.4167092,26.74741 C91.2668246,26.8865722 91.1831981,27.0829126 91.1867092,27.28741 L91.1867092,36.28741 L89.5867092,36.28741 L89.5867092,24.91741 L98.7767092,24.91741 Z" id="Path" fill="#FFFFFF"></path>
            <path d="M113.826709,38.34741 C113.839939,38.9798938 113.594312,39.5903499 113.146709,40.03741 C112.707126,40.4911714 112.098328,40.7412136 111.466709,40.72741 L103.896709,40.72741 L103.896709,39.11741 L111.466709,39.11741 C111.884194,39.1120225 112.221322,38.7748945 112.226709,38.35741 L112.226709,36.25741 L104.656709,36.25741 C103.347794,36.25741 102.286709,35.1963249 102.286709,33.88741 L102.286709,27.27741 C102.286709,25.9684952 103.347794,24.90741 104.656709,24.90741 L111.466709,24.90741 C112.098328,24.8936064 112.707126,25.1436486 113.146709,25.59741 C113.591229,26.0383199 113.836791,26.6413928 113.826709,27.26741 L113.826709,38.34741 Z M104.656709,34.64741 L111.466709,34.64741 C111.884194,34.6420225 112.221322,34.3048945 112.226709,33.88741 L112.226709,27.27741 C112.221322,26.8599256 111.884194,26.5227976 111.466709,26.51741 L104.656709,26.51741 C104.239225,26.5227976 103.902097,26.8599256 103.896709,27.27741 L103.896709,33.88741 C103.902097,34.3048945 104.239225,34.6420225 104.656709,34.64741 L104.656709,34.64741 Z" id="Shape" fill="#FFFFFF"></path>
            <circle id="Oval" fill="#FFFFFF" cx="87.6367092" cy="22.97741" r="1"></circle>
            <polygon id="Path" fill="#FFFFFF" points="113.896709 22.18741 116.636709 22.18741 116.636709 22.59741 115.476709 22.59741 115.476709 24.92741 115.026709 24.92741 115.026709 22.59741 113.866709 22.59741"></polygon>
            <polygon id="Path" fill="#FFFFFF" points="118.476709 23.44741 119.536709 22.17741 120.026709 22.17741 120.026709 24.91741 119.616709 24.91741 119.616709 22.72741 118.476709 24.08741 117.336709 22.72741 117.336709 24.91741 116.926709 24.91741 116.926709 22.18741 117.416709 22.18741"></polygon>
        </g>
    </g>
</svg>