<?xml version="1.0" encoding="UTF-8"?>
<svg width="245px" height="57px" viewBox="0 0 245 57" version="1.1" xmlns="http://www.w3.org/2000/svg" xmlns:xlink="http://www.w3.org/1999/xlink">
    <title>Untitled</title>
    <g id="Page-1" stroke="none" stroke-width="1" fill="none" fill-rule="evenodd">
        <g id="Jupyter_logo-2" transform="translate(219.000000, 7.000000)" fill-rule="nonzero">
            <g id="Jupyter_logo">
                <g id="Group-3" transform="translate(0.000000, 7.272727)" fill="#FFFFFF" style="mix-blend-mode: color-dodge;">
                    <g id="path0_fill-link" transform="translate(0.000000, 0.778725)">
                        <path d="M0.817690815,2.34273306 C0.817690815,3.00936411 0.759284997,3.22649563 0.609095263,3.38648503 C0.441941881,3.52392137 0.224937372,3.59992403 0,3.59980851 L0.0584067545,3.98073748 C0.407135032,3.98504186 0.745512958,3.87256322 1.00959966,3.66456673 C1.15169205,3.50634444 1.25743076,3.323618 1.3205038,3.12727671 C1.38358152,2.93093542 1.40270024,2.72500555 1.37672596,2.52177126 L1.37672596,0 L0.817690815,0 L0.817690815,2.32749659 L0.817690815,2.34273306 Z" id="path0_fill"></path>
                    </g>
                    <g id="path1_fill-link" transform="translate(2.408584, 0.783003)">
                        <path d="M2.57823446,2.03798646 C2.57823446,2.32368426 2.57823446,2.57890911 2.60326218,2.79984868 L2.10680805,2.79984868 L2.07343463,2.34654111 C1.96959374,2.50693271 1.82109095,2.6393544 1.64302912,2.73034965 C1.4649626,2.82134491 1.26368652,2.86767046 1.05965978,2.86460691 C0.575721849,2.86460691 0,2.62462281 0,1.64562479 L0,0.0190466197 L0.559035142,0.0190466197 L0.559035142,1.54277324 C0.559035142,2.07227174 0.738427785,2.42653581 1.24322761,2.42653581 C1.34708257,2.42755842 1.45011279,2.40963064 1.54628277,2.37380931 C1.64245274,2.33798798 1.7298178,2.2849962 1.80326087,2.21793603 C1.87669925,2.15088014 1.93473956,2.07110365 1.97397042,1.98329604 C2.0131966,1.89548414 2.03283078,1.80140394 2.03171552,1.70657497 L2.03171552,0 L2.59074598,0 L2.59074598,2.02274999 L2.57823446,2.03798646 Z" id="path1_fill"></path>
                    </g>
                    <g id="path2_fill-link" transform="translate(6.021460, 0.735938)">
                        <path d="M0.0250313725,0.972395977 C0.0250313725,0.618127628 0.0250313725,0.32862007 0,0.0657769842 L0.500629325,0.0657769842 L0.525657042,0.541940978 C0.637196971,0.369909161 0.797770795,0.228737088 0.990260699,0.133475964 C1.18275529,0.0382150538 1.39994958,-0.00756415459 1.61869492,0.00101873832 C2.36129321,0.00101873832 2.92032835,0.568605878 2.92032835,1.41427512 C2.92032835,2.41231767 2.24865208,2.90753089 1.5227405,2.90753089 C1.33694683,2.91509992 1.15215596,2.87875659 0.986249516,2.80201371 C0.820343069,2.72526655 0.678939511,2.61072129 0.575721849,2.4694598 L0.575721849,2.4694598 L0.575721849,3.99318423 L0.0250313725,3.99318423 L0.0250313725,0.983824403 L0.0250313725,0.972395977 Z M0.575721849,1.71521367 C0.577235414,1.7843319 0.585613912,1.85318057 0.600754252,1.92091677 C0.648087144,2.09005832 0.755840816,2.23995853 0.906958371,2.34689624 C1.05808061,2.45383824 1.24393988,2.51171202 1.43513177,2.51136275 C2.02336982,2.51136275 2.36963891,2.07329007 2.36963891,1.43713197 C2.36963891,0.880972853 2.04423172,0.40480672 1.45599367,0.40480672 C1.2232045,0.422212926 1.00536355,0.516551133 0.843308963,0.670131028 C0.681254376,0.823710923 0.58611531,1.02599106 0.575721849,1.23904925 L0.575721849,1.71521367 Z" id="path2_fill"></path>
                    </g>
                    <g id="path3_fill-link" transform="translate(9.320376, 0.791561)">
                        <path d="M0.617440959,0.00761862219 L1.28911723,1.64943712 C1.36003925,1.83228337 1.43513177,2.05322294 1.48519658,2.21702466 C1.5436024,2.04941489 1.60617872,1.83609141 1.68127593,1.63800869 L2.29037119,0.00761862219 L2.87860924,0.00761862219 L2.04423172,1.98846471 C1.62704062,2.94079356 1.37255545,3.43219873 0.988737761,3.72932496 C0.795418442,3.89055518 0.559728664,4.00340606 0.304548569,4.05692413 L0.166875973,3.63028145 C0.345301902,3.57675056 0.510947811,3.49272532 0.654989564,3.38267698 C0.858514907,3.23122788 1.02003061,3.03806995 1.12641129,2.81889749 C1.14918038,2.78094108 1.16470028,2.73971574 1.17230091,2.69699713 C1.16755872,2.65102671 1.15488788,2.60603183 1.13475699,2.56367264 L0,0 L0.609095263,0 L0.617440959,0.00761862219 Z" id="path3_fill"></path>
                    </g>
                    <g id="path4_fill-link" transform="translate(12.656781, 0.000000)">
                        <path d="M1.02628637,0 L1.02628637,0.799955544 L1.82729047,0.799955544 L1.82729047,1.18088879 L1.02628637,1.18088879 L1.02628637,2.68176066 C1.02628637,3.02460058 1.13475699,3.22268331 1.44347747,3.22268331 C1.55312427,3.22432205 1.6625274,3.21279522 1.76888466,3.18840231 L1.79391706,3.56933128 C1.63443507,3.61978151 1.46614815,3.64302344 1.29745824,3.63790183 C1.18574493,3.64428566 1.0738395,3.62852719 0.96942223,3.59170464 C0.865004962,3.55488209 0.770550047,3.49786832 0.692533484,3.42457836 C0.522601795,3.21704397 0.445084755,2.95843039 0.475596921,2.70080946 L0.475596921,1.17708074 L0,1.17708074 L0,0.796147495 L0.483937932,0.796147495 L0.483937932,0.118088879 L1.02628637,0 Z" id="path4_fill"></path>
                    </g>
                    <g id="path5_fill-link" transform="translate(14.962273, 0.748774)">
                        <path d="M0.55161259,1.53134482 C0.540291309,1.66053608 0.559822394,1.79042906 0.608860975,1.91205129 C0.657899557,2.03367353 0.735274144,2.14411978 0.835642742,2.23576112 C0.936006654,2.32740674 1.05696536,2.39805674 1.1901638,2.4428334 C1.32336224,2.48761007 1.46561865,2.50544372 1.60710655,2.49510636 C1.89328287,2.50095108 2.17759418,2.45162615 2.44148407,2.35034916 L2.5374385,2.73128241 C2.21361516,2.85308007 1.86541078,2.91148014 1.51532263,2.90270023 C1.31123029,2.91545934 1.10653346,2.88775899 0.915271276,2.82149466 C0.724004408,2.75523461 0.550703514,2.65198086 0.407243288,2.51882323 C0.263785874,2.38566133 0.153569729,2.22574039 0.0841556521,2.0500353 C0.0147412941,1.87432594 -0.0122285667,1.68699133 0.00509589956,1.50087187 C0.00509589956,0.662822998 0.55161259,0 1.44440062,0 C2.44565458,0 2.69596924,0.799955544 2.69596924,1.31040524 C2.70132061,1.38905643 2.70132061,1.46793438 2.69596924,1.54658557 L0.539101075,1.54658557 L0.55161259,1.53134482 Z M2.18699891,1.15041584 C2.20309987,1.04856979 2.19510562,0.944759812 2.16355036,0.845977312 C2.13199978,0.747194813 2.07762389,0.655733181 2.00409179,0.577758032 C1.93055501,0.499787161 1.83957239,0.437112667 1.73726849,0.393959343 C1.63496459,0.350806876 1.52371519,0.328179364 1.4110272,0.327601738 C1.18180405,0.342751783 0.967046459,0.435520988 0.808839045,0.587731697 C0.650631631,0.739938127 0.560384709,0.940609466 0.555787782,1.15041584 L2.18699891,1.15041584 Z" id="path5_fill"></path>
                    </g>
                    <g id="path6_fill-link" transform="translate(18.481430, 0.727380)">
                        <path d="M0.0250313725,0.938012288 C0.0250313725,0.610413117 0.0250313725,0.328521657 0,0.0694879035 L0.500629325,0.0694879035 L0.500629325,0.614221166 L0.525657042,0.614221166 C0.578205408,0.446093669 0.686774438,0.297076587 0.83629408,0.187856182 C0.985813722,0.0786353504 1.1688661,0.0146314619 1.36003925,0.0047295935 C1.41265791,-0.00157653117 1.46595134,-0.00157653117 1.51856999,0.0047295935 L1.51856999,0.480896668 C1.45481281,0.474153427 1.39041833,0.474153427 1.32666115,0.480896668 C1.13728272,0.487592844 0.957046608,0.55701058 0.819621431,0.676185395 C0.682196254,0.795355931 0.596982054,0.956128332 0.579892354,1.12847891 C0.56429279,1.20642411 0.555918978,1.28543043 0.554864637,1.36465496 L0.554864637,2.8464823 L0.00417189698,2.8464823 L0.00417189698,0.941820337 L0.0250313725,0.938012288 Z" id="path6_fill"></path>
                    </g>
                </g>
                <g id="path7_fill-link" transform="translate(14.666667, 0.000000)" fill="#FFFFFF">
                    <path d="M2.66418198,1.13852398 C2.68033338,1.37866736 2.61746837,1.61774274 2.48358755,1.82529606 C2.34970673,2.0328534 2.15088012,2.19948948 1.91242603,2.30398484 C1.67397194,2.40847618 1.40669183,2.44609306 1.14463354,2.41204555 C0.882575246,2.37799402 0.63760051,2.27381987 0.440915643,2.11278877 C0.244231218,1.9517617 0.10474114,1.74116498 0.0402153549,1.5078311 C-0.0243104746,1.27449722 -0.0109512846,1.02898574 0.0785909751,0.8025778 C0.168133191,0.576169862 0.329805384,0.379108231 0.543011422,0.236500539 C0.756217903,0.0938928479 1.01130935,0.0121931078 1.27578417,0.00180894925 C1.44918645,-0.00686298068 1.62276545,0.0157045789 1.78653255,0.0682138756 C1.95030407,0.120722931 2.10103873,0.202138246 2.23006883,0.307777083 C2.35909451,0.413416321 2.46387542,0.541194874 2.53837686,0.683764824 C2.6128783,0.826334774 2.65563358,0.980885595 2.66418198,1.13852398 L2.66418198,1.13852398 Z" id="path7_fill"></path>
                </g>
                <g id="path10_fill-link" transform="translate(0.666667, 16.969697)" fill="#FFFFFF">
                    <path d="M3.33009861,1.42117208 C3.35070414,1.72136448 3.27251713,2.02033756 3.10550276,2.27999744 C2.93848401,2.53965733 2.69020057,2.74824913 2.39228411,2.87919878 C2.09436766,3.01014843 1.76030385,3.05752668 1.43265844,3.01529668 C1.10500865,2.9730627 0.798608855,2.84313712 0.552495571,2.64206846 C0.306381848,2.44099981 0.131697402,2.17788915 0.0506970774,1.88626389 C-0.0303028524,1.59463464 -0.0139511834,1.28769612 0.0976689094,1.00454236 C0.209289046,0.721392586 0.411124123,0.474854359 0.677457128,0.296337189 C0.943794518,0.117819222 1.26257078,0.0154047062 1.59317549,0.00214214027 C1.80974834,-0.00838666498 2.02648341,0.0199703116 2.23099983,0.0855928495 C2.43551187,0.151215905 2.62379816,0.252818138 2.78509559,0.384596209 C2.94639302,0.516375077 3.07754939,0.675743705 3.17105902,0.853605389 C3.26457304,1.03146309 3.31861651,1.22432722 3.33009861,1.42117208 L3.33009861,1.42117208 Z" id="path10_fill"></path>
                </g>
                <g id="path11_fill-link" transform="translate(0.000000, 1.818182)" fill="#FFFFFF">
                    <path d="M1.02782906,1.81783541 C0.830653539,1.82278323 0.63626839,1.77463337 0.469120178,1.67944195 C0.301973794,1.58424637 0.169525734,1.44625553 0.0884337331,1.28282829 C0.00734182403,1.1193969 -0.0187734856,0.937822149 0.0133720383,0.760937856 C0.0455175621,0.584053563 0.134488546,0.419754645 0.269096288,0.288709011 C0.403704488,0.157661716 0.577940057,0.0657145926 0.769891054,0.0244309509 C0.961837484,-0.0168526494 1.1629314,-0.00562945845 1.34788592,0.0566889859 C1.53283587,0.119007762 1.69338492,0.229639104 1.80933828,0.37467061 C1.92529621,0.519702946 1.99148417,0.692660535 1.9995767,0.871790438 C2.00728104,1.11400495 1.90955871,1.34920868 1.7276229,1.52632957 C1.5456871,1.70345461 1.29422038,1.80820544 1.02782906,1.81783541 Z" id="path11_fill"></path>
                </g>
                <g id="g" transform="translate(0.666667, 1.818182)" fill="#F37726">
                    <g id="path8_fill-link" transform="translate(0.000000, 10.551805)">
                        <path d="M8.66664349,2.84781988 C4.9523942,2.84781988 1.68793314,1.69801297 0,0 C0.654923492,1.52755674 1.83665887,2.84538885 3.38614321,3.77611485 C4.93561365,4.70684885 6.77850728,5.20577051 8.66664349,5.20577051 C10.5548261,5.20577051 12.3976733,4.70684885 13.9471855,3.77611485 C15.4966513,2.84538885 16.678382,1.52755674 17.3333333,0 C15.6495304,1.69801297 12.3974416,2.84781988 8.66664349,2.84781988 Z" id="path8_fill"></path>
                    </g>
                    <g id="path9_fill-link">
                        <path d="M8.66664349,2.35796262 C12.3809391,2.35796262 15.6454048,3.50776953 17.3333333,5.20577051 C16.678382,3.67822576 15.4966513,2.36039365 13.9471855,1.42966765 C12.3976733,0.498941652 10.5548261,0 8.66664349,0 C6.77850728,0 4.93561365,0.498941652 3.38614321,1.42966765 C1.83665887,2.36039365 0.654923492,3.67822576 0,5.20577051 C1.68793314,3.50421094 4.93589178,2.35796262 8.66664349,2.35796262 Z" id="path9_fill"></path>
                    </g>
                </g>
            </g>
        </g>
        <g id="Group" transform="translate(8.000000, 4.000000)" fill-rule="nonzero">
            <path d="M34.0267092,39.39741 C32.5222047,38.1163917 30.3927772,37.8714482 28.6367092,38.77741 C28.1545756,39.0230418 27.5700688,38.9389689 27.1767092,38.56741 L26.3367092,37.78741 C25.8408102,37.32452 25.7842024,36.5581369 26.2067092,36.02741 C30.9818666,29.6257649 29.6906629,20.569468 23.3167092,15.75741 C22.68837,15.2685843 22.5289033,14.3850522 22.9467092,13.70741 L23.5567092,12.70741 C23.9038678,12.1502319 24.5677815,11.876619 25.2067092,12.02741 C28.0070994,12.6663921 30.8732437,11.2617904 32.0840065,8.657076 C33.2947693,6.05236166 32.5209373,2.95577101 30.2272011,1.2268241 C27.9334649,-0.502122808 24.743504,-0.393315708 22.5729078,1.48790613 C20.4023116,3.36912796 19.8412774,6.51124987 21.2267092,9.02741002 C21.637253,9.82136867 21.5596435,10.7798464 21.0267092,11.49741 L20.3567092,12.38741 C19.8032824,13.1256544 18.863634,13.4637705 17.9667092,13.24741 C11.5049944,11.6747054 4.80031269,14.6897126 1.68890686,20.5673237 C-1.42249898,26.4449347 -0.146352352,33.6847189 4.78716913,38.1442618 C9.72069062,42.6038048 17.0521626,43.1446788 22.5867092,39.45741 C23.2644949,38.9963086 24.1602714,39.0163933 24.8167092,39.50741 L25.4367092,39.97741 C26.056957,40.4382919 26.3341704,41.23033 26.1367092,41.97741 C25.5800104,44.3082372 26.8017219,46.6976719 29.0171966,47.6110943 C31.2326714,48.5245166 33.7834131,47.6904337 35.031202,45.6445374 C36.2789908,43.598641 35.8529517,40.9490244 34.0267092,39.39741 L34.0267092,39.39741 Z" id="Path" fill="#1AD7E5"></path>
            <path d="M37.1867092,22.16741 L45.6067092,22.16741 C46.3921243,22.1537978 47.1483321,22.4649646 47.6967092,23.02741 C48.2570726,23.5689461 48.5683663,24.3182229 48.5567092,25.09741 L48.5567092,33.27741 C48.5570252,34.0667761 48.2386485,34.8228409 47.673933,35.3743797 C47.1092174,35.9259186 46.34585,36.2262686 45.5567092,36.20741 L37.1867092,36.20741 C35.5685149,36.20741 34.2567092,34.8956043 34.2567092,33.27741 L34.2567092,25.08741 C34.2567092,23.4692157 35.5685149,22.15741 37.1867092,22.15741 L37.1867092,22.16741 Z M45.6067092,24.16741 L37.1867092,24.16741 C36.6698202,24.1728229 36.2521221,24.5905211 36.2467092,25.10741 L36.2467092,33.28741 C36.2521221,33.804299 36.6698202,34.2219971 37.1867092,34.22741 L45.6067092,34.22741 C46.1235982,34.2219971 46.5412963,33.804299 46.5467092,33.28741 L46.5467092,25.08741 C46.5412963,24.5705211 46.1235982,24.1528229 45.6067092,24.14741 L45.6067092,24.16741 Z" id="Shape" fill="#1AD7E5"></path>
            <polygon id="Path" fill="#1AD7E5" points="30.8667092 36.19741 30.8667092 22.19741 32.8667092 22.19741 32.8667092 36.19741"></polygon>
            <circle id="Oval" fill="#1AD7E5" cx="31.8567092" cy="19.76741" r="1"></circle>
            <path d="M12.9167092,34.02741 L11.0267092,34.02741 C10.4744244,34.02741 10.0267092,33.5796948 10.0267092,33.02741 L10.0267092,28.56741 C10.0267092,28.0151253 10.4744244,27.56741 11.0267092,27.56741 L11.7467092,27.56741 L13.0267092,25.40741 L11.0267092,25.40741 C10.4744244,25.40741 10.0267092,24.9596948 10.0267092,24.40741 L10.0267092,22.12741 L7.86670919,22.12741 L7.86670919,33.78741 C7.86670919,35.1018477 8.93227149,36.16741 10.2467092,36.16741 L11.6867092,36.16741 L12.9167092,34.02741 Z" id="Path" fill="#FFFFFF"></path>
            <path d="M21.0867092,26.21741 L21.0267092,25.76741 C21.248414,25.3339196 21.3648926,24.8543018 21.3667092,24.36741 L21.3667092,21.72741 C21.3720748,20.8850403 21.0398169,20.0756172 20.4441595,19.4799598 C19.848502,18.8843024 19.0390789,18.5520444 18.1967092,18.557346 L7.86670919,18.557346 L7.86670919,20.69741 L18.1567092,20.69741 C18.4239551,20.6985194 18.6796378,20.8065544 18.8667092,20.99741 C19.0588983,21.1910031 19.1636575,21.4547075 19.1567092,21.72741 L19.1567092,24.37741 C19.1636575,24.6501125 19.0588983,24.9138169 18.8667092,25.10741 C18.6796378,25.2982657 18.4239551,25.4063006 18.1567092,25.40741 L14.6367092,25.40741 L13.4067092,27.54741 L19.0267092,27.54741 C19.5789939,27.54741 20.0267092,27.9951253 20.0267092,28.54741 L20.0267092,33.02741 C20.0267092,33.5796948 19.5789939,34.02741 19.0267092,34.02741 L14.5567092,34.02741 L13.3267092,36.16741 L19.0267092,36.16741 C20.7507889,36.1509979 22.1413138,34.7515594 22.1467761,33.02741 L22.1467761,28.56741 C22.1526262,27.6670544 21.7655434,26.8088991 21.0867092,26.21741 L21.0867092,26.21741 Z" id="Path" fill="#FFFFFF"></path>
            <polygon id="Path" fill="#FFFFFF" points="51.7467092 22.17741 65.8267092 22.17741 65.8267092 23.75741 59.5867092 23.75741 59.5867092 36.25741 58.0267092 36.25741 58.0267092 23.75741 51.7467092 23.75741"></polygon>
            <path d="M74.1967092,24.91741 L75.7967092,24.91741 L75.7967092,33.91741 C75.8065216,34.5453485 75.5568903,35.1495288 75.1067092,35.58741 C74.6626725,36.0406831 74.0511041,36.2903767 73.4167092,36.27741 L66.6067092,36.27741 C65.2977943,36.27741 64.2367092,35.2163249 64.2367092,33.90741 L64.2367092,24.90741 L65.8367092,24.90741 L65.8367092,33.90741 C65.8420968,34.3248945 66.1792247,34.6620225 66.5967092,34.66741 L73.4067092,34.66741 C73.6120441,34.6703521 73.8100474,34.5911508 73.9567092,34.44741 C74.1065938,34.3082478 74.1902202,34.1119074 74.1867092,33.90741 L74.1967092,24.91741 Z" id="Path" fill="#FFFFFF"></path>
            <path d="M79.3067092,24.91741 L85.6767092,24.91741 L85.6767092,26.51741 L79.3067092,26.51741 C78.8892247,26.5227976 78.5520968,26.8599256 78.5467092,27.27741 L78.5467092,36.27741 L76.9467092,36.27741 L76.9467092,27.27741 C76.9467092,26.6488469 77.1964049,26.0460282 77.6408661,25.601567 C78.0853273,25.1571057 78.6881461,24.90741 79.3167092,24.90741 L79.3067092,24.91741 Z" id="Path" fill="#FFFFFF"></path>
            <polygon id="Path" fill="#FFFFFF" points="86.8267092 36.25741 86.8267092 24.91741 88.4267092 24.91741 88.4267092 36.25741"></polygon>
            <path d="M98.7767092,24.91741 C100.085624,24.91741 101.146709,25.9784952 101.146709,27.28741 L101.146709,36.28741 L99.5467092,36.28741 L99.5467092,27.28741 C99.5413216,26.8699256 99.2041936,26.5327976 98.7867092,26.52741 L91.9667092,26.52741 C91.7613742,26.5244679 91.563371,26.6036692 91.4167092,26.74741 C91.2668246,26.8865722 91.1831981,27.0829126 91.1867092,27.28741 L91.1867092,36.28741 L89.5867092,36.28741 L89.5867092,24.91741 L98.7767092,24.91741 Z" id="Path" fill="#FFFFFF"></path>
            <path d="M113.826709,38.34741 C113.839939,38.9798938 113.594312,39.5903499 113.146709,40.03741 C112.707126,40.4911714 112.098328,40.7412136 111.466709,40.72741 L103.896709,40.72741 L103.896709,39.11741 L111.466709,39.11741 C111.884194,39.1120225 112.221322,38.7748945 112.226709,38.35741 L112.226709,36.25741 L104.656709,36.25741 C103.347794,36.25741 102.286709,35.1963249 102.286709,33.88741 L102.286709,27.27741 C102.286709,25.9684952 103.347794,24.90741 104.656709,24.90741 L111.466709,24.90741 C112.098328,24.8936064 112.707126,25.1436486 113.146709,25.59741 C113.591229,26.0383199 113.836791,26.6413928 113.826709,27.26741 L113.826709,38.34741 Z M104.656709,34.64741 L111.466709,34.64741 C111.884194,34.6420225 112.221322,34.3048945 112.226709,33.88741 L112.226709,27.27741 C112.221322,26.8599256 111.884194,26.5227976 111.466709,26.51741 L104.656709,26.51741 C104.239225,26.5227976 103.902097,26.8599256 103.896709,27.27741 L103.896709,33.88741 C103.902097,34.3048945 104.239225,34.6420225 104.656709,34.64741 L104.656709,34.64741 Z" id="Shape" fill="#FFFFFF"></path>
            <circle id="Oval" fill="#FFFFFF" cx="87.6367092" cy="22.97741" r="1"></circle>
            <polygon id="Path" fill="#FFFFFF" points="113.896709 22.18741 116.636709 22.18741 116.636709 22.59741 115.476709 22.59741 115.476709 24.92741 115.026709 24.92741 115.026709 22.59741 113.866709 22.59741"></polygon>
            <polygon id="Path" fill="#FFFFFF" points="118.476709 23.44741 119.536709 22.17741 120.026709 22.17741 120.026709 24.91741 119.616709 24.91741 119.616709 22.72741 118.476709 24.08741 117.336709 22.72741 117.336709 24.91741 116.926709 24.91741 116.926709 22.18741 117.416709 22.18741"></polygon>
        </g>
        <text id="powered-by" font-family="RedHatDisplayRoman-Regular, Red Hat Display" font-size="8" font-weight="normal" fill="#FFFFFF">
            <tspan x="173" y="20">powered by</tspan>
        </text>
        <text id="Data-science" font-family="RedHatDisplayRoman-Regular, Red Hat Display" font-size="18" font-weight="normal" fill="#FFFFFF">
            <tspan x="137" y="40">Data science</tspan>
        </text>
    </g>
</svg>